<!-- <svg width="160" height="24" viewBox="0 0 160 24" fill="none" xmlns="http://www.w3.org/2000/svg">
<path d="M7.95343 21.1394C4.89586 21.1304 2.25471 19.458 0.987296 16.2895C-0.280118 13.121 0.108924 9.16314 1.74363 5.61504C4.8012 5.62409 7.44235 7.29648 8.70976 10.465C9.97718 13.6335 9.58814 17.5913 7.95343 21.1394Z" fill="white"/>
<path d="M7.95343 21.1394C4.89586 21.1304 2.25471 19.458 0.987296 16.2895C-0.280118 13.121 0.108924 9.16314 1.74363 5.61504C4.8012 5.62409 7.44235 7.29648 8.70976 10.465C9.97718 13.6335 9.58814 17.5913 7.95343 21.1394Z" fill="url(#paint0_radial_115_109)"/>
<path d="M7.95343 21.1394C4.89586 21.1304 2.25471 19.458 0.987296 16.2895C-0.280118 13.121 0.108924 9.16314 1.74363 5.61504C4.8012 5.62409 7.44235 7.29648 8.70976 10.465C9.97718 13.6335 9.58814 17.5913 7.95343 21.1394Z" fill="black" fill-opacity="0.5" style="mix-blend-mode:hard-light"/>
<path d="M7.95343 21.1394C4.89586 21.1304 2.25471 19.458 0.987296 16.2895C-0.280118 13.121 0.108924 9.16314 1.74363 5.61504C4.8012 5.62409 7.44235 7.29648 8.70976 10.465C9.97718 13.6335 9.58814 17.5913 7.95343 21.1394Z" fill="url(#paint1_linear_115_109)" fill-opacity="0.5" style="mix-blend-mode:hard-light"/>
<path d="M7.9354 21.1112C4.89702 21.0957 2.27411 19.4306 1.01347 16.279C-0.248375 13.1244 0.135612 9.18218 1.76165 5.64327C4.80004 5.65882 7.42295 7.32385 8.68359 10.4755C9.94543 13.63 9.56144 17.5723 7.9354 21.1112Z" stroke="url(#paint2_linear_115_109)" stroke-opacity="0.05" stroke-width="0.056338"/>
<path d="M7.31038 21.2574C11.3543 20.2215 14.8836 17.3754 16.6285 13.2361C18.3735 9.09671 17.9448 4.58749 15.8598 0.976291C11.8159 2.01214 8.2866 4.85826 6.54167 8.99762C4.79674 13.137 5.2254 17.6462 7.31038 21.2574Z" fill="white"/>
<path d="M7.31038 21.2574C11.3543 20.2215 14.8836 17.3754 16.6285 13.2361C18.3735 9.09671 17.9448 4.58749 15.8598 0.976291C11.8159 2.01214 8.2866 4.85826 6.54167 8.99762C4.79674 13.137 5.2254 17.6462 7.31038 21.2574Z" fill="url(#paint3_radial_115_109)"/>
<path d="M16.6025 13.2251C14.8642 17.349 11.3512 20.1866 7.32411 21.2248C5.25257 17.624 4.82926 13.1324 6.56764 9.00855C8.30603 4.88472 11.819 2.04706 15.8461 1.00889C17.9176 4.60967 18.3409 9.10131 16.6025 13.2251Z" stroke="url(#paint4_linear_115_109)" stroke-opacity="0.05" stroke-width="0.056338"/>
<path d="M7.23368 21.2069C9.78906 23.2373 13.2102 23.9506 16.5772 22.8141C19.9441 21.6775 22.5058 18.9445 23.7304 15.6382C21.175 13.6078 17.7538 12.8944 14.3869 14.031C11.0199 15.1676 8.45822 17.9006 7.23368 21.2069Z" fill="white"/>
<path d="M7.23368 21.2069C9.78906 23.2373 13.2102 23.9506 16.5772 22.8141C19.9441 21.6775 22.5058 18.9445 23.7304 15.6382C21.175 13.6078 17.7538 12.8944 14.3869 14.031C11.0199 15.1676 8.45822 17.9006 7.23368 21.2069Z" fill="url(#paint5_radial_115_109)"/>
<path d="M7.23368 21.2069C9.78906 23.2373 13.2102 23.9506 16.5772 22.8141C19.9441 21.6775 22.5058 18.9445 23.7304 15.6382C21.175 13.6078 17.7538 12.8944 14.3869 14.031C11.0199 15.1676 8.45822 17.9006 7.23368 21.2069Z" fill="black" fill-opacity="0.2" style="mix-blend-mode:hard-light"/>
<path d="M7.23368 21.2069C9.78906 23.2373 13.2102 23.9506 16.5772 22.8141C19.9441 21.6775 22.5058 18.9445 23.7304 15.6382C21.175 13.6078 17.7538 12.8944 14.3869 14.031C11.0199 15.1676 8.45822 17.9006 7.23368 21.2069Z" fill="url(#paint6_linear_115_109)" fill-opacity="0.5" style="mix-blend-mode:hard-light"/>
<path d="M16.5682 22.7874C13.2176 23.9184 9.81361 23.2124 7.2672 21.1975C8.49194 17.9068 11.0444 15.189 14.3959 14.0577C17.7465 12.9266 21.1504 13.6326 23.6968 15.6476C22.4721 18.9383 19.9196 21.656 16.5682 22.7874Z" stroke="url(#paint7_linear_115_109)" stroke-opacity="0.05" stroke-width="0.056338"/>
<path d="M34.2124 19V5.4H39.4924L41.6924 12.2L42.3724 14.74L43.0524 12.2L45.2524 5.4H50.4124V19H46.3324L46.5924 9.98L45.5324 13.68L43.7924 19H40.8324L39.0524 13.6L38.0324 10.02L38.2924 19H34.2124ZM52.4155 7.3V4.6H56.2955V7.3H52.4155ZM52.4155 19V8.14H56.2955V19H52.4155ZM58.1038 19V8.14H61.9838V9.58C62.6638 8.34 63.7438 7.76 65.0038 7.76C66.9638 7.76 68.6238 8.98 68.6238 11.78V19H64.7438V12.56C64.7438 11.34 64.3038 10.86 63.4838 10.86C62.6038 10.86 61.9838 11.58 61.9838 12.88V19H58.1038ZM70.9327 15.22V11.06H69.7327V8.14H70.9327V5.62H74.8127V8.14H76.9327V11.06H74.8127V14.6C74.8127 15.5 75.0327 16.06 76.2127 16.06H76.9327V19C76.4927 19.2 75.6727 19.38 74.6527 19.38C72.1527 19.38 70.9327 17.88 70.9327 15.22Z" fill="url(#paint8_radial_115_109)"/>
<path d="M87.232 10.519C87.232 13.687 94.1125 11.2285 94.1125 15.832C94.1125 17.9935 92.3635 19.198 89.971 19.198C87.562 19.198 85.912 18.0925 85.417 15.832H87.001C87.364 17.1685 88.3705 17.8945 89.9875 17.8945C91.6705 17.8945 92.5615 17.152 92.5615 16.03C92.5615 12.598 85.681 15.1555 85.681 10.618C85.681 9.001 87.034 7.582 89.509 7.582C91.6705 7.582 93.403 8.6215 93.8155 11.014H92.215C91.8685 9.529 90.9115 8.8855 89.476 8.8855C88.057 8.8855 87.232 9.529 87.232 10.519ZM96.2499 16.4755V11.3935H95.0289V10.2385H96.2499V8.2255H97.7019V10.2385H99.6324V11.3935H97.7019V16.4755C97.7019 17.5315 98.0154 18.0265 99.3024 18.0265H99.5994V19.066C99.4344 19.1485 99.0714 19.198 98.6589 19.198C97.0254 19.198 96.2499 18.3235 96.2499 16.4755ZM102.516 13.093H101.064C101.345 11.1625 102.615 10.024 104.76 10.024C107.103 10.024 108.242 11.3935 108.242 13.4395V16.888C108.242 17.8945 108.324 18.5215 108.555 19H107.021C106.856 18.6535 106.806 18.142 106.79 17.614C106.047 18.7195 104.859 19.198 103.803 19.198C101.988 19.198 100.767 18.3565 100.767 16.69C100.767 15.4855 101.427 14.611 102.714 14.182C103.902 13.786 105.107 13.687 106.79 13.6705V13.4725C106.79 12.0535 106.13 11.278 104.628 11.278C103.374 11.278 102.698 11.971 102.516 13.093ZM102.252 16.657C102.252 17.4655 102.929 17.944 103.952 17.944C105.569 17.944 106.79 16.6735 106.79 15.172V14.7595C103.061 14.7925 102.252 15.5845 102.252 16.657ZM110.787 19V10.2385H112.239V11.5915C112.833 10.519 113.774 10.024 114.83 10.024C115.176 10.024 115.49 10.1065 115.655 10.2385V11.542C115.407 11.4595 115.094 11.4265 114.747 11.4265C112.998 11.4265 112.239 12.5155 112.239 14.0995V19H110.787ZM117.305 16.4755V11.3935H116.084V10.2385H117.305V8.2255H118.757V10.2385H120.688V11.3935H118.757V16.4755C118.757 17.5315 119.071 18.0265 120.358 18.0265H120.655V19.066C120.49 19.1485 120.127 19.198 119.714 19.198C118.081 19.198 117.305 18.3235 117.305 16.4755ZM129.809 16.1455C129.33 18.1915 127.862 19.198 125.865 19.198C123.324 19.198 121.79 17.482 121.79 14.6275C121.79 11.6575 123.324 10.024 125.783 10.024C128.258 10.024 129.743 11.7235 129.743 14.512V14.875H123.275C123.357 16.8385 124.281 17.944 125.865 17.944C127.103 17.944 127.977 17.35 128.291 16.1455H129.809ZM125.783 11.278C124.38 11.278 123.539 12.1525 123.324 13.786H128.225C128.027 12.169 127.152 11.278 125.783 11.278ZM131.843 19V10.2385H133.295V11.5915C133.889 10.519 134.829 10.024 135.885 10.024C136.232 10.024 136.545 10.1065 136.71 10.2385V11.542C136.463 11.4595 136.149 11.4265 135.803 11.4265C134.054 11.4265 133.295 12.5155 133.295 14.0995V19H131.843ZM141.763 19V7.78H143.281V13.192L148.413 7.78H150.327L145.047 13.291L150.459 19H148.413L143.281 13.621V19H141.763ZM152.06 9.067V7.12H153.512V9.067H152.06ZM152.06 19V10.2385H153.512V19H152.06ZM156.178 16.4755V11.3935H154.957V10.2385H156.178V8.2255H157.63V10.2385H159.56V11.3935H157.63V16.4755C157.63 17.5315 157.943 18.0265 159.23 18.0265H159.527V19.066C159.362 19.1485 158.999 19.198 158.587 19.198C156.953 19.198 156.178 18.3235 156.178 16.4755Z" fill="white" fill-opacity="0.55"/>
<defs>
<radialGradient id="paint0_radial_115_109" cx="0" cy="0" r="1" gradientUnits="userSpaceOnUse" gradientTransform="translate(-3.00503 15.023) rotate(-10.029) scale(17.9572 17.784)">
<stop stop-color="#00B0BB"/>
<stop offset="1" stop-color="#00DB65"/>
</radialGradient>
<linearGradient id="paint1_linear_115_109" x1="7.39036" y1="4.81308" x2="1.62975" y2="18.6894" gradientUnits="userSpaceOnUse">
<stop stop-color="#18E299"/>
<stop offset="1"/>
</linearGradient>
<linearGradient id="paint2_linear_115_109" x1="7.94816" y1="8.01562" x2="1.7612" y2="18.746" gradientUnits="userSpaceOnUse">
<stop/>
<stop offset="1" stop-opacity="0"/>
</linearGradient>
<radialGradient id="paint3_radial_115_109" cx="0" cy="0" r="1" gradientUnits="userSpaceOnUse" gradientTransform="translate(8.11404 20.8822) rotate(-75.7542) scale(21.6246 23.7772)">
<stop stop-color="#00BBBB"/>
<stop offset="0.712616" stop-color="#00DB65"/>
</radialGradient>
<linearGradient id="paint4_linear_115_109" x1="7.60205" y1="5.8709" x2="15.5561" y2="16.3719" gradientUnits="userSpaceOnUse">
<stop/>
<stop offset="1" stop-opacity="0"/>
</linearGradient>
<radialGradient id="paint5_radial_115_109" cx="0" cy="0" r="1" gradientUnits="userSpaceOnUse" gradientTransform="translate(7.84537 21.5181) rotate(-20.3525) scale(18.5603 17.32)">
<stop stop-color="#00B0BB"/>
<stop offset="1" stop-color="#00DB65"/>
</radialGradient>
<linearGradient id="paint6_linear_115_109" x1="16.8078" y1="13.0071" x2="10.0409" y2="22.9937" gradientUnits="userSpaceOnUse">
<stop stop-color="#00B1BC"/>
<stop offset="1"/>
</linearGradient>
<linearGradient id="paint7_linear_115_109" x1="16.8078" y1="13.0071" x2="14.1687" y2="23.841" gradientUnits="userSpaceOnUse">
<stop/>
<stop offset="1" stop-opacity="0"/>
</linearGradient>
<radialGradient id="paint8_radial_115_109" cx="0" cy="0" r="1" gradientUnits="userSpaceOnUse" gradientTransform="translate(47.2781 7) rotate(19.0047) scale(67.5582 85.7506)">
<stop stop-color="white"/>
<stop offset="1" stop-color="white" stop-opacity="0.5"/>
</radialGradient>
</defs>
</svg> -->

<svg width="390" height="133" viewBox="0 0 390 133" fill="none" xmlns="http://www.w3.org/2000/svg">
<path d="M159.781 65.5197C159.09 65.3566 158.404 65.1973 157.721 65.0304C156.602 64.7611 155.487 64.5222 154.399 64.287C147.993 62.9026 142.463 61.7041 142.463 56.2689C142.463 51.7592 147.048 48.9563 154.429 48.9563C164.397 48.9563 166.748 53.8643 167.734 58.6622L167.791 58.9315H177.304L177.27 58.5636C176.477 49.8438 170.059 40.521 154.433 40.521C141.768 40.521 132.923 47.2685 132.923 56.9289C132.923 68.9333 143.214 71.1559 151.486 72.9423C152.593 73.1813 153.667 73.4126 154.683 73.6592C155.734 73.9171 156.773 74.1522 157.789 74.3798C164.582 75.9007 169.946 77.1031 169.946 83.9719C169.946 90.1505 162.125 92.3921 156.872 92.3921C143.214 92.3921 140.809 86.4676 140.247 80.0615L140.221 79.7543H130.686L130.701 80.107C131.308 93.4654 140.6 100.824 156.864 100.824C170.181 100.824 179.481 93.6665 179.481 83.4182C179.481 70.1394 169.464 67.7916 159.781 65.5197Z" fill="white"/>
<path d="M208.731 87.8444L191.569 42.0761H180.858L202.439 94.4099C204.995 100.801 201.267 105.599 200.065 106.911C197.193 109.995 193.848 110.347 189.005 109.907H187.336V117.144L187.575 117.216C190.029 117.971 192.528 118.339 195.21 118.339C205.454 118.339 208.648 110.302 210.977 104.434L235.607 42.0723H224.904L208.731 87.8444Z" fill="white"/>
<path d="M269.902 40.5249C259.252 40.5249 253.616 45.7439 251.397 48.4785V42.0762H241.858V99.28H251.401V63.6954C251.401 55.0174 258.099 48.9564 267.691 48.9564C278.103 48.9564 279.658 56.9404 279.658 61.7004V99.28H289.201V59.4854C289.193 45.5049 279.229 40.5249 269.902 40.5249Z" fill="white"/>
<path d="M324.88 48.9602C335.682 48.9602 340.048 56.4359 340.507 62.8345L340.529 63.1455H350.084L350.046 62.7738C348.646 49.4647 338.534 40.5249 324.884 40.5249C308.305 40.5249 297.17 52.6431 297.17 70.6781C297.17 88.7131 308.309 100.831 324.884 100.831C338.895 100.831 349.242 91.4933 350.05 78.1235L350.072 77.7669H340.533L340.514 78.0817C340.294 81.4422 338.515 92.3998 324.888 92.3998C311.472 92.3998 306.712 80.6988 306.712 70.6781C306.709 60.6574 311.465 48.9602 324.88 48.9602Z" fill="white"/>
<path d="M389.094 49.472H387.57V41.8716H387.525L384.499 49.472H383.535L380.509 41.8716H380.464V49.472H378.94V40.3691H381.294L384.05 47.2847L386.763 40.3691H389.094V49.472ZM377.057 41.5843H374.166V49.472H372.642V41.5843H369.75V40.3691H377.057V41.5843Z" fill="white"/>
<path d="M369.382 89.8657H359.839V99.4085H369.382V89.8657Z" fill="white"/>
<path d="M50.0205 110.471V88.5425C28.2189 88.5425 9.68082 79.3041 2.82978 66.4474C0.998745 69.8773 0 73.5613 0 77.4073C0 95.6344 22.3929 110.471 50.0205 110.471ZM50.0205 22.529V0.25C22.3929 0.25 0 15.0253 0 33.2567C0 37.151 1.02503 40.9006 2.90425 44.3875C9.81223 31.6316 28.2978 22.529 50.0205 22.529ZM2.82978 66.4474C5.03315 62.3254 8.44115 58.5801 12.7822 55.3956C8.48933 52.211 5.10762 48.4744 2.89986 44.3831C1.02503 47.848 0 51.5846 0 55.4788C0 59.3204 0.998745 63.0132 2.82978 66.4474ZM50.0205 44.4619C35.232 44.4619 21.9417 48.6803 12.7822 55.3999C21.9417 62.1984 35.2277 66.5044 50.0205 66.5044V44.4619Z" fill="white"/>
<path d="M50.0205 88.5424C64.7826 88.5424 78.0466 84.381 87.2018 77.6702C78.0466 70.9593 64.7782 66.5 50.0205 66.5V88.5424Z" fill="white"/>
<path d="M50.0205 110.471V132.75C77.6436 132.75 100.041 117.975 100.041 99.7436C100.041 95.845 99.0115 92.1041 97.1323 88.6304C90.2156 101.377 71.7344 110.471 50.0205 110.471Z" fill="white"/>
<path d="M50.0205 22.5293V44.4579C71.822 44.4579 90.3601 53.7181 97.2112 66.5573C99.0422 63.1274 100.041 59.4346 100.041 55.593C100.041 37.3659 77.6436 22.5293 50.0205 22.5293Z" fill="white"/>
<path d="M97.211 66.561C94.9988 70.7049 91.5689 74.4721 87.2016 77.6699C91.5164 80.8326 94.9156 84.5428 97.1277 88.6298C99.0113 85.1604 100.036 81.4239 100.036 77.5209C100.041 73.6793 99.042 69.9909 97.211 66.561Z" fill="white"/>
</svg>