<svg width="390" height="133" viewBox="0 0 390 133" fill="none" xmlns="http://www.w3.org/2000/svg">
<path d="M159.781 65.5197C159.09 65.3566 158.404 65.1973 157.721 65.0304C156.602 64.7611 155.487 64.5222 154.399 64.287C147.993 62.9026 142.463 61.7041 142.463 56.2689C142.463 51.7592 147.048 48.9563 154.429 48.9563C164.397 48.9563 166.748 53.8643 167.734 58.6622L167.791 58.9315H177.304L177.27 58.5636C176.477 49.8438 170.059 40.521 154.433 40.521C141.768 40.521 132.923 47.2685 132.923 56.9289C132.923 68.9333 143.214 71.1559 151.486 72.9423C152.593 73.1813 153.667 73.4126 154.683 73.6592C155.734 73.9171 156.773 74.1522 157.789 74.3798C164.582 75.9007 169.946 77.1031 169.946 83.9719C169.946 90.1505 162.125 92.3921 156.872 92.3921C143.214 92.3921 140.809 86.4676 140.247 80.0615L140.221 79.7543H130.686L130.701 80.107C131.308 93.4654 140.6 100.824 156.864 100.824C170.181 100.824 179.481 93.6665 179.481 83.4182C179.481 70.1394 169.464 67.7916 159.781 65.5197Z" fill="black"/>
<path d="M208.731 87.8444L191.569 42.0761H180.858L202.439 94.4099C204.995 100.801 201.267 105.599 200.065 106.911C197.193 109.995 193.848 110.347 189.005 109.907H187.336V117.144L187.575 117.216C190.029 117.971 192.528 118.339 195.21 118.339C205.454 118.339 208.648 110.302 210.977 104.434L235.607 42.0723H224.904L208.731 87.8444Z" fill="black"/>
<path d="M269.902 40.5249C259.252 40.5249 253.616 45.7439 251.397 48.4785V42.0762H241.858V99.28H251.401V63.6954C251.401 55.0174 258.099 48.9564 267.691 48.9564C278.103 48.9564 279.658 56.9404 279.658 61.7004V99.28H289.201V59.4854C289.193 45.5049 279.229 40.5249 269.902 40.5249Z" fill="black"/>
<path d="M324.88 48.9602C335.682 48.9602 340.048 56.4359 340.507 62.8345L340.529 63.1455H350.084L350.046 62.7738C348.646 49.4647 338.534 40.5249 324.884 40.5249C308.305 40.5249 297.17 52.6431 297.17 70.6781C297.17 88.7131 308.309 100.831 324.884 100.831C338.895 100.831 349.242 91.4933 350.05 78.1235L350.072 77.7669H340.533L340.514 78.0817C340.294 81.4422 338.515 92.3998 324.888 92.3998C311.472 92.3998 306.712 80.6988 306.712 70.6781C306.709 60.6574 311.465 48.9602 324.88 48.9602Z" fill="black"/>
<path d="M389.094 49.472H387.57V41.8716H387.525L384.499 49.472H383.535L380.509 41.8716H380.464V49.472H378.94V40.3691H381.294L384.05 47.2847L386.763 40.3691H389.094V49.472ZM377.057 41.5843H374.166V49.472H372.642V41.5843H369.75V40.3691H377.057V41.5843Z" fill="black"/>
<path d="M369.382 89.8657H359.839V99.4085H369.382V89.8657Z" fill="black"/>
<path d="M50.0205 110.471V88.5425C28.2189 88.5425 9.68082 79.3041 2.82978 66.4474C0.998745 69.8773 0 73.5613 0 77.4073C0 95.6344 22.3929 110.471 50.0205 110.471ZM50.0205 22.529V0.25C22.3929 0.25 0 15.0253 0 33.2567C0 37.151 1.02503 40.9006 2.90425 44.3875C9.81223 31.6316 28.2978 22.529 50.0205 22.529ZM2.82978 66.4474C5.03315 62.3254 8.44115 58.5801 12.7822 55.3956C8.48933 52.211 5.10762 48.4744 2.89986 44.3831C1.02503 47.848 0 51.5846 0 55.4788C0 59.3204 0.998745 63.0132 2.82978 66.4474ZM50.0205 44.4619C35.232 44.4619 21.9417 48.6803 12.7822 55.3999C21.9417 62.1984 35.2277 66.5044 50.0205 66.5044V44.4619Z" fill="black"/>
<path d="M50.0205 88.5424C64.7826 88.5424 78.0466 84.381 87.2018 77.6702C78.0466 70.9593 64.7782 66.5 50.0205 66.5V88.5424Z" fill="black"/>
<path d="M50.0205 110.471V132.75C77.6436 132.75 100.041 117.975 100.041 99.7436C100.041 95.845 99.0115 92.1041 97.1323 88.6304C90.2156 101.377 71.7344 110.471 50.0205 110.471Z" fill="black"/>
<path d="M50.0205 22.5293V44.4579C71.822 44.4579 90.3601 53.7181 97.2112 66.5573C99.0422 63.1274 100.041 59.4346 100.041 55.593C100.041 37.3659 77.6436 22.5293 50.0205 22.5293Z" fill="black"/>
<path d="M97.211 66.561C94.9988 70.7049 91.5689 74.4721 87.2016 77.6699C91.5164 80.8326 94.9156 84.5428 97.1277 88.6298C99.0113 85.1604 100.036 81.4239 100.036 77.5209C100.041 73.6793 99.042 69.9909 97.211 66.561Z" fill="black"/>
</svg>